<svg xmlns="http://www.w3.org/2000/svg" viewBox="0 0 1200 700"><defs><linearGradient id="bg" x1="0" x2="1" y1="0" y2="1"><stop stop-color="#050505"/><stop offset="1" stop-color="#1F2937"/></linearGradient><linearGradient id="gold" x1="0" x2="1"><stop stop-color="#FDE68A"/><stop offset=".45" stop-color="#D97706"/><stop offset="1" stop-color="#FACC15"/></linearGradient><linearGradient id="diamond" x1="0" x2="1"><stop stop-color="#EFF6FF"/><stop offset="1" stop-color="#93C5FD"/></linearGradient></defs><rect width="1200" height="700" fill="url(#bg)"/><circle cx="600" cy="360" r="360" fill="#F59E0B" opacity=".08"/><g transform="translate(220 325)"><path d="M0 150 60 40h280l-60 110H0Z" fill="url(#gold)"/><path d="M310 150 370 40h280l-60 110H310Z" fill="url(#gold)"/><path d="M155 255 215 145h280l-60 110H155Z" fill="url(#gold)"/></g><g transform="translate(455 105)" fill="url(#diamond)" stroke="#FFFFFF" stroke-width="7"><path d="M145 0 280 90 220 230H70L10 90 145 0Z"/><path d="M10 90h270M80 90l65 140M210 90l-65 140M145 0l-65 90M145 0l65 90" fill="none"/></g></svg>